<svg width="128" height="128" viewBox="0 0 128 128" fill="none" xmlns="http://www.w3.org/2000/svg">
<rect width="128" height="128" rx="20" fill="white"/>
<path d="M78.1025 89.2527C75.9074 95.4856 67.0926 95.4856 64.8975 89.2527L48.3704 42.3253C46.7668 37.7717 50.1453 33 54.9729 33L88.027 33C92.8547 33 96.2332 37.7717 94.6296 42.3253L78.1025 89.2527Z" fill="#FFCE09" fill-opacity="0.72"/>
<path d="M98.1025 89.2527C95.9074 95.4856 87.0926 95.4856 84.8975 89.2527L68.3704 42.3253C66.7668 37.7717 70.1453 33 74.9729 33L108.027 33C112.855 33 116.233 37.7717 114.63 42.3253L98.1025 89.2527Z" fill="#38DC6C" fill-opacity="0.63"/>
<path d="M23 31C18.0294 31 14 35.0294 14 40V90C14 94.9706 18.0294 99 23 99H39.7653C42.181 99 44.5057 98.0327 46.1686 96.2804C70.3117 70.8401 71.5947 56.0794 39.7591 32.6979C38.2508 31.5901 36.4049 31 34.5335 31H23Z" fill="#FF0000" fill-opacity="0.55"/>
</svg>
