<svg width="128" height="128" viewBox="0 0 128 128" fill="none" xmlns="http://www.w3.org/2000/svg">
<g clip-path="url(#clip0_62_4315)">
<rect width="128" height="128" fill="white"/>
<path d="M36.5 110.5H7.77273V17.4091H37.7727C46.803 17.4091 54.5303 19.2727 60.9545 23C67.3788 26.697 72.303 32.0151 75.7273 38.9545C79.1515 45.8636 80.8636 54.1364 80.8636 63.7727C80.8636 73.4697 79.1364 81.8182 75.6818 88.8182C72.2273 95.7879 67.197 101.152 60.5909 104.909C53.9849 108.636 45.9545 110.5 36.5 110.5ZM19.0455 100.5H35.7727C43.4697 100.5 49.8485 99.0152 54.9091 96.0455C59.9697 93.0758 63.7424 88.8485 66.2273 83.3636C68.7121 77.8788 69.9545 71.3485 69.9545 63.7727C69.9545 56.2576 68.7273 49.7879 66.2727 44.3636C63.8182 38.9091 60.1515 34.7273 55.2727 31.8182C50.3939 28.8788 44.3182 27.4091 37.0455 27.4091H19.0455V100.5ZM37.3218 110.5L11.8673 17.4091H23.3218L42.7764 93.2273H43.6855L63.5036 17.4091H76.2309L96.0491 93.2273H96.9582L116.413 17.4091H127.867L102.413 110.5H90.7764L70.2309 36.3182H69.5036L48.9582 110.5H37.3218Z" fill="black"/>
</g>
<defs>
<clipPath id="clip0_62_4315">
<rect width="128" height="128" fill="white"/>
</clipPath>
</defs>
</svg>
